<svg version="1.1" id="Layer_1" xmlns="http://www.w3.org/2000/svg" xmlns:xlink="http://www.w3.org/1999/xlink" x="0px" y="0px"
	 width="100%" viewBox="0 0 156 149" enable-background="new 0 0 156 149" xml:space="preserve">
<path fill="#6E019E" opacity="1.000000" stroke="none" 
	d="
M88.000000,150.000000 
	C58.690315,150.000000 29.880632,150.000000 1.035475,150.000000 
	C1.035475,100.397743 1.035475,50.795452 1.035475,1.096581 
	C52.892799,1.096581 104.785843,1.096581 156.839447,1.096581 
	C156.839447,50.666252 156.839447,100.333076 156.839447,150.000000 
	C134.129166,150.000000 111.314583,150.000000 88.000000,150.000000 
M137.012604,93.450500 
	C137.012558,73.129707 137.021515,52.808899 137.007263,32.488113 
	C137.002670,25.956110 135.256851,24.175407 128.799911,24.172657 
	C94.987244,24.158260 61.174576,24.158026 27.361916,24.172586 
	C20.860456,24.175385 19.115080,25.931007 19.109978,32.446457 
	C19.092762,54.433006 19.096857,76.419579 19.105303,98.406136 
	C19.108334,106.293404 20.234816,107.428604 27.996805,107.434326 
	C38.600403,107.442139 49.204010,107.436279 59.997040,107.436279 
	C59.997040,111.419807 59.997040,114.799942 59.997040,118.567902 
	C55.366364,118.567902 51.056812,118.486107 46.752331,118.598625 
	C44.174332,118.666000 40.847244,118.242050 40.952400,122.229881 
	C41.048317,125.867432 44.003654,126.011040 46.782417,126.010803 
	C67.769592,126.009048 88.756775,125.996758 109.743912,126.025131 
	C112.593124,126.028984 115.438377,125.877327 115.373199,122.151436 
	C115.312912,118.704849 112.519562,118.572136 109.910896,118.568253 
	C105.333282,118.561432 100.755653,118.566345 96.335205,118.566345 
	C96.335205,114.406845 96.335205,111.034958 96.335205,107.436371 
	C105.899178,107.436371 115.053276,107.436432 124.207382,107.436363 
	C137.012695,107.436264 137.012695,107.436218 137.012604,93.450500 
z"/>
<path fill="#FCF8FD" opacity="1.000000" stroke="none" 
	d="
M137.012604,93.940063 
	C137.012695,107.436218 137.012695,107.436264 124.207382,107.436363 
	C115.053276,107.436432 105.899178,107.436371 96.335205,107.436371 
	C96.335205,111.034958 96.335205,114.406845 96.335205,118.566345 
	C100.755653,118.566345 105.333282,118.561432 109.910896,118.568253 
	C112.519562,118.572136 115.312912,118.704849 115.373199,122.151436 
	C115.438377,125.877327 112.593124,126.028984 109.743912,126.025131 
	C88.756775,125.996758 67.769592,126.009048 46.782417,126.010803 
	C44.003654,126.011040 41.048317,125.867432 40.952400,122.229881 
	C40.847244,118.242050 44.174332,118.666000 46.752331,118.598625 
	C51.056812,118.486107 55.366364,118.567902 59.997040,118.567902 
	C59.997040,114.799942 59.997040,111.419807 59.997040,107.436279 
	C49.204010,107.436279 38.600403,107.442139 27.996805,107.434326 
	C20.234816,107.428604 19.108334,106.293404 19.105303,98.406136 
	C19.096857,76.419579 19.092762,54.433006 19.109978,32.446457 
	C19.115080,25.931007 20.860456,24.175385 27.361916,24.172586 
	C61.174576,24.158026 94.987244,24.158260 128.799911,24.172657 
	C135.256851,24.175407 137.002670,25.956110 137.007263,32.488113 
	C137.021515,52.808899 137.012558,73.129707 137.012604,93.940063 
M25.938835,49.500748 
	C25.938835,66.071503 25.938835,82.642265 25.938835,99.268982 
	C61.045456,99.268982 95.443916,99.268982 129.877014,99.268982 
	C129.877014,76.420151 129.877014,53.883289 129.877014,31.333561 
	C95.098846,31.333561 60.710175,31.333561 25.938835,31.333561 
	C25.938835,37.241417 25.938835,42.871437 25.938835,49.500748 
z"/>
<path fill="#7103A1" opacity="1.000000" stroke="none" 
	d="
M25.938835,49.001102 
	C25.938835,42.871437 25.938835,37.241417 25.938835,31.333561 
	C60.710175,31.333561 95.098846,31.333561 129.877014,31.333561 
	C129.877014,53.883289 129.877014,76.420151 129.877014,99.268982 
	C95.443916,99.268982 61.045456,99.268982 25.938835,99.268982 
	C25.938835,82.642265 25.938835,66.071503 25.938835,49.001102 
M92.763504,81.972130 
	C90.244957,81.131050 87.726410,80.289970 84.504692,79.214066 
	C86.467445,77.127991 87.643486,75.972107 88.713142,74.724976 
	C93.403236,69.256721 96.494339,63.182373 96.028870,55.701572 
	C95.377525,45.233501 85.761559,36.600636 76.006050,37.805729 
	C65.401543,39.115696 57.157166,49.723995 59.867775,60.009449 
	C61.622025,66.665962 65.325912,72.808670 68.496490,79.947960 
	C66.885063,80.407761 64.168022,81.329201 61.383739,81.948303 
	C54.756786,83.421852 47.974255,84.338150 41.492256,86.275024 
	C36.519524,87.760895 31.826733,90.357117 28.965963,95.777321 
	C61.398483,95.777321 93.254150,95.777321 125.109818,95.777321 
	C125.362488,95.375603 125.615150,94.973877 125.867813,94.572159 
	C122.960426,92.354385 120.364975,89.205574 117.082954,88.105934 
	C109.432106,85.542480 101.450935,83.964912 92.763504,81.972130 
z"/>
<path fill="#FDFBFE" opacity="1.000000" stroke="none" 
	d="
M93.183540,81.980042 
	C101.450935,83.964912 109.432106,85.542480 117.082954,88.105934 
	C120.364975,89.205574 122.960426,92.354385 125.867813,94.572159 
	C125.615150,94.973877 125.362488,95.375603 125.109818,95.777321 
	C93.254150,95.777321 61.398483,95.777321 28.965963,95.777321 
	C31.826733,90.357117 36.519524,87.760895 41.492256,86.275024 
	C47.974255,84.338150 54.756786,83.421852 61.383739,81.948303 
	C64.168022,81.329201 66.885063,80.407761 68.496490,79.947960 
	C65.325912,72.808670 61.622025,66.665962 59.867775,60.009449 
	C57.157166,49.723995 65.401543,39.115696 76.006050,37.805729 
	C85.761559,36.600636 95.377525,45.233501 96.028870,55.701572 
	C96.494339,63.182373 93.403236,69.256721 88.713142,74.724976 
	C87.643486,75.972107 86.467445,77.127991 84.504692,79.214066 
	C87.726410,80.289970 90.244957,81.131050 93.183540,81.980042 
M80.640594,66.256386 
	C77.619537,66.135788 74.599083,65.994644 71.577095,65.905357 
	C70.467621,65.872574 69.354515,65.962456 68.243065,65.996391 
	C68.779427,67.022339 69.061470,68.450531 69.908066,68.985802 
	C71.410507,69.935738 73.207596,70.638718 74.965973,70.924255 
	C80.550606,71.831123 84.967880,69.466919 86.282845,65.135078 
	C87.636894,60.674530 85.774872,57.418434 80.235870,54.615032 
	C78.312256,53.641449 76.211990,52.926453 74.490646,51.681114 
	C73.604988,51.040363 72.798386,49.367374 73.012093,48.392292 
	C73.221497,47.436882 74.675232,46.314030 75.754356,46.089657 
	C77.495590,45.727615 79.405533,46.243809 81.189537,45.995750 
	C82.265930,45.846081 83.238953,44.952988 84.258423,44.393944 
	C84.133141,43.833172 84.007858,43.272404 83.882576,42.711636 
	C80.861221,42.545349 77.621193,41.636185 74.885811,42.441402 
	C72.584412,43.118874 70.096428,45.438690 69.083000,47.665073 
	C67.673355,50.761879 69.789734,53.407299 72.610397,55.045582 
	C74.616219,56.210590 76.787659,57.086422 78.847404,58.163567 
	C82.109596,59.869541 83.788445,62.141876 80.640594,66.256386 
z"/>
<path fill="#7B0BA7" opacity="1.000000" stroke="none" 
	d="
M80.983505,65.999710 
	C83.788445,62.141876 82.109596,59.869541 78.847404,58.163567 
	C76.787659,57.086422 74.616219,56.210590 72.610397,55.045582 
	C69.789734,53.407299 67.673355,50.761879 69.083000,47.665073 
	C70.096428,45.438690 72.584412,43.118874 74.885811,42.441402 
	C77.621193,41.636185 80.861221,42.545349 83.882576,42.711636 
	C84.007858,43.272404 84.133141,43.833172 84.258423,44.393944 
	C83.238953,44.952988 82.265930,45.846081 81.189537,45.995750 
	C79.405533,46.243809 77.495590,45.727615 75.754356,46.089657 
	C74.675232,46.314030 73.221497,47.436882 73.012093,48.392292 
	C72.798386,49.367374 73.604988,51.040363 74.490646,51.681114 
	C76.211990,52.926453 78.312256,53.641449 80.235870,54.615032 
	C85.774872,57.418434 87.636894,60.674530 86.282845,65.135078 
	C84.967880,69.466919 80.550606,71.831123 74.965973,70.924255 
	C73.207596,70.638718 71.410507,69.935738 69.908066,68.985802 
	C69.061470,68.450531 68.779427,67.022339 68.243065,65.996391 
	C69.354515,65.962456 70.467621,65.872574 71.577095,65.905357 
	C74.599083,65.994644 77.619537,66.135788 80.983505,65.999710 
z"/>
</svg>